<svg width="28" height="28" viewBox="0 0 28 28" fill="none" xmlns="http://www.w3.org/2000/svg">
<path d="M2 27.275L5.88867 21.2825V6.71749L2 0.724609H10.9933C13.9614 0.724609 16.5713 1.26827 18.823 2.35559C21.0747 3.4429 22.8274 4.97273 24.0812 6.94507C25.3605 8.91741 26.0002 11.269 26.0002 14C26.0002 16.7056 25.3605 19.0573 24.0812 21.0549C22.8274 23.0272 21.0747 24.5571 18.823 25.6444C16.5713 26.7317 13.9614 27.2753 10.9933 27.2753L2 27.275ZM5.88867 21.2825H10.6863C12.2215 21.2825 13.552 21.0043 14.6779 20.448C15.8293 19.8664 16.7248 19.032 17.3645 17.9447C18.0042 16.8321 18.324 15.5172 18.324 14C18.324 12.4575 18.0042 11.1426 17.3645 10.0553C16.7248 8.96798 15.8293 8.14617 14.6779 7.58987C13.552 7.00828 12.2215 6.71749 10.6863 6.71749H5.88867V21.2825Z" fill="white"/>
<path d="M5.99951 10.5181H11.1842C13.1073 10.5181 14.6662 12.077 14.6662 14.0001V14.0001C14.6662 15.9232 13.1073 17.4822 11.1842 17.4822H5.99951V10.5181Z" fill="#27B500"/>
</svg>
