<svg width="150" height="22" viewBox="0 0 150 22" fill="none" xmlns="http://www.w3.org/2000/svg">
<path d="M0.885254 21.9997L4.04079 17.0343V4.96571L0.885254 0H8.18305C10.5916 0 12.7094 0.450477 14.5366 1.35143C16.3637 2.25238 17.786 3.52 18.8034 5.15429C19.8416 6.78857 20.3607 8.73714 20.3607 11C20.3607 13.2419 19.8416 15.1905 18.8034 16.8457C17.786 18.48 16.3637 19.7476 14.5366 20.6486C12.7094 21.5495 10.5916 22 8.18305 22L0.885254 21.9997ZM4.04079 17.0343H7.93389C9.17968 17.0343 10.2594 16.8038 11.173 16.3429C12.1073 15.861 12.834 15.1695 13.3531 14.2686C13.8722 13.3467 14.1317 12.2571 14.1317 11C14.1317 9.7219 13.8722 8.63238 13.3531 7.73143C12.834 6.83048 12.1073 6.14952 11.173 5.68857C10.2594 5.20667 9.17968 4.96571 7.93389 4.96571H4.04079V17.0343Z" fill="white"/>
<path d="M4.13135 8.11475H8.27889C9.87237 8.11475 11.1641 9.40651 11.1641 11V11C11.1641 12.5935 9.87237 13.8852 8.27889 13.8852H4.13135V8.11475Z" fill="#27B500"/>
<path d="M31.5175 8.61264H41.3703V13.0852H31.5175V8.61264ZM31.942 16.9533H43.0377V21.5769H26V0.423077H42.6435V5.0467H31.942V16.9533Z" fill="white"/>
<path d="M55.6222 21.5769L46.5576 0.423077H53.0453L60.6849 18.7363H56.8651L64.6867 0.423077H70.6286L61.5338 21.5769H55.6222Z" fill="white"/>
<path d="M85.3376 22C83.6399 22 82.0736 21.728 80.6386 21.1841C79.2037 20.6401 77.9506 19.8745 76.8794 18.8874C75.8285 17.88 75.0099 16.7115 74.4238 15.3819C73.8377 14.0522 73.5447 12.5916 73.5447 11C73.5447 9.40842 73.8377 7.9478 74.4238 6.61813C75.0099 5.28846 75.8285 4.13004 76.8794 3.14286C77.9506 2.13553 79.2037 1.35989 80.6386 0.815934C82.0736 0.271978 83.6399 0 85.3376 0C87.0555 0 88.6219 0.271978 90.0366 0.815934C91.4716 1.35989 92.7146 2.13553 93.7655 3.14286C94.8165 4.13004 95.635 5.28846 96.2211 6.61813C96.8274 7.9478 97.1306 9.40842 97.1306 11C97.1306 12.5916 96.8274 14.0623 96.2211 15.4121C95.635 16.7418 94.8165 17.9002 93.7655 18.8874C92.7146 19.8745 91.4716 20.6401 90.0366 21.1841C88.6219 21.728 87.0555 22 85.3376 22ZM85.3376 17.044C86.1461 17.044 86.8939 16.9029 87.581 16.6209C88.2884 16.3388 88.8947 15.9359 89.4 15.4121C89.9255 14.8681 90.3297 14.2234 90.6126 13.478C90.9158 12.7326 91.0674 11.9066 91.0674 11C91.0674 10.0733 90.9158 9.24725 90.6126 8.52198C90.3297 7.77656 89.9255 7.14194 89.4 6.61813C88.8947 6.07418 88.2884 5.66117 87.581 5.37912C86.8939 5.09707 86.1461 4.95604 85.3376 4.95604C84.5292 4.95604 83.7713 5.09707 83.0639 5.37912C82.3768 5.66117 81.7704 6.07418 81.245 6.61813C80.7397 7.14194 80.3355 7.77656 80.0323 8.52198C79.7494 9.24725 79.6079 10.0733 79.6079 11C79.6079 11.9066 79.7494 12.7326 80.0323 13.478C80.3355 14.2234 80.7397 14.8681 81.245 15.4121C81.7704 15.9359 82.3768 16.3388 83.0639 16.6209C83.7713 16.9029 84.5292 17.044 85.3376 17.044Z" fill="white"/>
<path d="M103.306 21.5769V0.423077H113.007C114.947 0.423077 116.615 0.735348 118.009 1.35989C119.424 1.98443 120.516 2.89103 121.284 4.07967C122.052 5.24817 122.436 6.63828 122.436 8.25C122.436 9.84158 122.052 11.2216 121.284 12.3901C120.516 13.5385 119.424 14.4249 118.009 15.0495C116.615 15.6538 114.947 15.956 113.007 15.956H106.641L109.309 13.4478V21.5769H103.306ZM116.433 21.5769L111.158 13.8709H117.555L122.86 21.5769H116.433ZM109.309 14.0824L106.641 11.3324H112.643C113.897 11.3324 114.826 11.0604 115.433 10.5165C116.059 9.97253 116.372 9.21703 116.372 8.25C116.372 7.26282 116.059 6.49725 115.433 5.9533C114.826 5.40934 113.897 5.13736 112.643 5.13736H106.641L109.309 2.38736V14.0824Z" fill="white"/>
<path d="M134.145 16.8929L133.811 10.1841L142.936 0.423077H149.545L140.45 10.2445L137.116 13.7198L134.145 16.8929ZM128.779 21.5769V0.423077H134.721V21.5769H128.779ZM143.027 21.5769L136.115 12.8434L140.026 8.67308L150 21.5769H143.027Z" fill="white"/>
</svg>
